<?xml version="1.0" encoding="UTF-8" standalone="no"?>
<svg width="100%" height="100%" viewBox="0 0 70 66" version="1.1" xmlns="http://www.w3.org/2000/svg" xmlns:xlink="http://www.w3.org/1999/xlink" xml:space="preserve" style="fill-rule:evenodd;clip-rule:evenodd;stroke-linejoin:round;stroke-miterlimit:2;">
    <g transform="translate(-2, 0)">
        <path d="M2.589,50.512c0,0 33.56,-6.875 64.289,-0.61c0,0 -7.073,6.913 -30.807,5.789l-6.06,-2.133c0,0 25.028,0.591 30.164,-3.046c0,0 -23.493,-3.904 -57.586,0Zm30.469,-5.18c0,0 14.821,-15.482 9.75,-44.789c0,0 7.28,28.926 -9.75,44.789Z" style="fill:#fdbb27;"/>
        <path d="M-0.153,58.738c0,0 9.337,-9.617 21.328,-6.398c11.991,3.218 37.064,15.386 45.703,3.475c0,0 -7.478,17.855 -36.258,4.447c-16.603,-7.736 -23.619,-4.489 -30.773,-1.524Zm45.093,-51.797c0,0 7.671,21.309 -9.173,38.391c0,0 26.857,0.389 27.759,-13.406c0.642,-9.807 -18.586,-24.985 -18.586,-24.985Z" style="fill:#0a4e93;"/>
    </g>
</svg>
