<svg xmlns="http://www.w3.org/2000/svg" xml:space="preserve" style="fill-rule:evenodd;clip-rule:evenodd;stroke-linejoin:round;stroke-miterlimit:2" viewBox="0 0 220 66" width="220" height="66"><path d="M111.942 42.453q.062 0 .062.188 0 .187-.062.187-1.063 0-1.688-.031l-2.313-.031-2.344.031q-.593.031-1.625.031-.093 0-.094-.187 0-.188.094-.188 1.313 0 1.782-.312.468-.313.468-1.313l-.031-.531-.656-12.783-6.438 15.095q-.063.125-.25.125-.188 0-.25-.125l-7.908-15.032-.25 11.282q-.03 1.687.672 2.641.704.953 1.985.953.094 0 .094.188 0 .187-.094.187-.844 0-1.313-.031l-1.719-.031-1.969.031q-.5.031-1.343.031-.094 0-.094-.187 0-.188.094-.188 1.281 0 2.031-.969t.781-2.625l.282-12.939-.032-.031q-.625-1.157-1.297-1.688a2.42 2.42 0 0 0-1.547-.531q-.093 0-.093-.188 0-.187.093-.187l1.469.031q.438.031 1.125.031l1.657-.031q.28-.031.719-.031.405 0 .625.281.218.282.812 1.344l6.814 12.783 5.938-13.627q.188-.438.39-.609.204-.172.547-.172.281 0 .641.031t.828.031l1.844-.031q.438-.031 1.25-.031.094 0 .094.187 0 .188-.094.188-1.468 0-2.125.594-.656.594-.594 1.844l.75 14.189q.063.968.235 1.406t.625.594 1.422.156M131.6 23.295q.063 0 .063.187 0 .188-.063.188-.968 0-2.375 1.203-1.406 1.204-2.5 3.016l-3.251 5.438v6.97q0 .968.157 1.406.156.438.609.594.454.156 1.453.156.094 0 .094.188 0 .187-.094.187-1.03 0-1.625-.031l-2.344-.031-2.312.031q-.626.031-1.688.031-.063 0-.063-.187 0-.188.063-.188 1 0 1.469-.156a.98.98 0 0 0 .64-.609q.172-.454.172-1.391v-6.314l-4.563-7.094q-1.156-1.813-1.922-2.516t-1.297-.703q-.094 0-.094-.188 0-.187.094-.187l.969.031q.687.063.969.063 1.093 0 3.157-.063l2.062-.031q.063 0 .063.187 0 .188-.063.188-.531 0-.828.25a.82.82 0 0 0-.297.656q0 .5.438 1.188l4.281 6.751 2.876-4.907q.844-1.407.844-2.407 0-.75-.454-1.141-.453-.39-1.297-.39-.093 0-.093-.188 0-.187.093-.187l1.657.031a59 59 0 0 0 2.563.063q.531 0 1.281-.063zm17.127 8.563q2.626.313 4.173 1.75 1.547 1.439 1.547 3.563a4.93 4.93 0 0 1-.938 2.938q-.938 1.313-2.594 2.079-1.656.765-3.688.765-.875 0-2-.093a49 49 0 0 0-1.078-.063 29 29 0 0 0-1.422-.031l-2.282.031q-.625.031-1.688.031-.093 0-.093-.187 0-.188.093-.188.907 0 1.376-.172t.672-.625.203-1.359V25.826q0-1.313-.438-1.734-.437-.422-1.781-.422-.063 0-.063-.188 0-.187.063-.187l1.656.031q1.438.063 2.282.063.874 0 1.812-.094.313-.032.938-.063t1.094-.031q2.844 0 4.407 1.031 1.562 1.032 1.562 3.001 0 1.5-.984 2.719t-2.829 1.906m-2.625-7.969q-.906 0-1.25.422t-.344 1.578v5.938l1.25.031q1.626 0 2.501-1.219.875-1.218.875-3.125 0-1.782-.782-2.703-.781-.922-2.25-.922m.594 18.283q4.094 0 4.094-4.251 0-2.406-1.156-3.812-1.156-1.407-3.501-1.407-.906 0-1.625.063v7.532q0 1.031.406 1.453t1.782.422m20.19 1.031q-2.907 0-5.173-1.359a9.3 9.3 0 0 1-3.5-3.688q-1.235-2.328-1.235-5.079 0-3.22 1.626-5.516a10.2 10.2 0 0 1 4.172-3.454q2.547-1.156 5.204-1.156 2.969 0 5.219 1.391 2.25 1.39 3.453 3.672a10.2 10.2 0 0 1 1.204 4.844q0 2.844-1.5 5.22a10.8 10.8 0 0 1-4.017 3.75q-2.516 1.375-5.453 1.375m1.031-.781a5.2 5.2 0 0 0 3.141-1.016q1.39-1.016 2.172-2.969t.782-4.672q0-2.876-.876-5.141-.875-2.267-2.531-3.548t-3.876-1.281q-2.844 0-4.375 2.141t-1.531 5.985q0 3.031.922 5.422.921 2.391 2.531 3.735t3.641 1.344m32.879.031q.156 0 .156.188 0 .187-.156.187-.625 0-1.938-.062a49 49 0 0 0-1.969-.063q-.781 0-1.906.063-1.063.062-1.688.062-.125 0-.125-.187 0-.188.125-.188.813 0 1.172-.172.36-.171.359-.609 0-.531-.625-1.782l-2.125-4.219h-7.688l-1.219 2.719q-.406.906-.406 1.688 0 1.125.797 1.75.796.625 2.14.625.157 0 .157.188 0 .187-.157.187-.562 0-1.625-.062a40 40 0 0 0-2.063-.063q-.843 0-2.031.063-1.062.062-1.719.062-.125 0-.125-.187 0-.188.125-.188.875 0 1.469-.359.594-.36 1.188-1.282.593-.922 1.406-2.734l6.782-14.908q.063-.094.281-.094.25 0 .282.094l7.813 15.377q1.093 2.219 1.813 3.062.718.844 1.5.844m-16.002-7.657h6.813l-3.594-7.126zm20.096-10.782q-3.719 0-5.344 4.844-.032.093-.188.078-.156-.016-.156-.109.125-1.25.281-3.235t.156-2.985q0-.156.172-.156t.172.156q0 .688 1.782.688 2.688.094 6.282.094 1.844 0 3.906-.063l2.126-.031q1.187 0 1.734-.157.547-.156.703-.625.031-.125.204-.125.171 0 .171.125-.093.938-.203 3.001a65 65 0 0 0-.109 3.313q0 .093-.156.093-.157 0-.188-.093-.468-2.407-1.75-3.61t-3.157-1.203q-.906 0-1.203.39-.297.392-.297 1.485v14.408q0 .968.188 1.406.187.438.719.594.53.156 1.687.156.094 0 .094.188 0 .187-.094.187-1.125 0-1.781-.031l-2.594-.031-2.532.031a40 40 0 0 1-1.813.031q-.093 0-.093-.187 0-.188.093-.188 1.126 0 1.673-.156.546-.156.75-.609.203-.454.203-1.391V25.826q0-1.062-.282-1.437t-1.156-.375" style="fill:#023f86;fill-opacity:.15;fill-rule:nonzero"/><path d="M110.132 42.453q.063 0 .063.188 0 .187-.063.187-1.062 0-1.688-.031l-2.312-.031-2.344.031q-.594.031-1.626.031-.093 0-.093-.187 0-.188.093-.188 1.313 0 1.782-.312.468-.313.469-1.313l-.032-.531-.656-12.783-6.438 15.095q-.063.125-.25.125-.188 0-.25-.125L88.88 27.577l-.25 11.282q-.031 1.687.672 2.641.702.953 1.984.953.094 0 .094.188 0 .187-.094.187-.843 0-1.313-.031l-1.718-.031-1.969.031q-.501.031-1.344.031-.094 0-.094-.187 0-.188.094-.188 1.281 0 2.031-.969t.781-2.625l.282-12.939-.032-.031q-.624-1.157-1.297-1.688a2.42 2.42 0 0 0-1.547-.531q-.093 0-.093-.188 0-.187.093-.187l1.469.031q.438.031 1.125.031l1.657-.031q.28-.031.719-.031.406 0 .625.281.22.282.812 1.344l6.814 12.783 5.938-13.627q.187-.438.391-.609.202-.172.546-.172.282 0 .641.031t.828.031l1.844-.031q.438-.031 1.25-.031.094 0 .094.187 0 .188-.094.188-1.468 0-2.125.594-.656.594-.594 1.844l.751 14.189q.061.968.234 1.406.172.438.625.594t1.422.156m19.659-19.158q.062 0 .062.187 0 .188-.062.188-.969 0-2.376 1.203-1.406 1.204-2.5 3.016l-3.25 5.438v6.97q0 .968.156 1.406t.609.594 1.454.156q.093 0 .093.188 0 .187-.093.187-1.032 0-1.626-.031l-2.344-.031-2.312.031q-.626.031-1.688.031-.063 0-.063-.187 0-.188.063-.188 1 0 1.469-.156a.99.99 0 0 0 .641-.609q.171-.454.171-1.391v-6.314l-4.563-7.094q-1.155-1.813-1.922-2.516-.765-.703-1.297-.703-.093 0-.093-.188 0-.187.093-.187l.969.031q.688.063.969.063 1.093 0 3.157-.063l2.062-.031q.063 0 .063.187 0 .188-.063.188-.531 0-.828.25a.82.82 0 0 0-.297.656q0 .5.438 1.188l4.282 6.751 2.875-4.907q.844-1.407.844-2.407 0-.75-.453-1.141-.454-.39-1.297-.39-.094 0-.094-.188 0-.187.094-.187l1.656.031a59 59 0 0 0 2.563.063q.531 0 1.281-.063zm17.127 8.563q2.624.313 4.172 1.75 1.547 1.439 1.547 3.563a4.93 4.93 0 0 1-.938 2.938q-.937 1.313-2.594 2.079-1.656.765-3.688.765-.875 0-2-.093a49 49 0 0 0-1.078-.063 29 29 0 0 0-1.422-.031l-2.282.031a35 35 0 0 1-1.687.031q-.094 0-.094-.187 0-.188.094-.188.906 0 1.375-.172t.672-.625.203-1.359V25.826q0-1.313-.438-1.734-.437-.422-1.781-.422-.063 0-.063-.188 0-.187.063-.187l1.656.031q1.438.063 2.282.063.874 0 1.813-.094.312-.032.937-.063t1.094-.031q2.844 0 4.407 1.031 1.563 1.032 1.562 3.001 0 1.5-.984 2.719t-2.828 1.906m-2.626-7.969q-.906 0-1.25.422t-.344 1.578v5.938l1.25.031q1.626 0 2.501-1.219.875-1.218.875-3.125 0-1.782-.782-2.703-.78-.922-2.25-.922m.594 18.283q4.094 0 4.094-4.251 0-2.406-1.156-3.812-1.156-1.407-3.501-1.407-.906 0-1.625.063v7.532q0 1.031.407 1.453.405.422 1.781.422m20.19 1.031q-2.907 0-5.173-1.359a9.3 9.3 0 0 1-3.5-3.688q-1.235-2.328-1.235-5.079 0-3.22 1.626-5.516a10.2 10.2 0 0 1 4.172-3.454q2.547-1.156 5.204-1.156 2.969 0 5.219 1.391 2.25 1.39 3.454 3.672a10.24 10.24 0 0 1 1.203 4.844q0 2.844-1.5 5.22-1.5 2.374-4.016 3.75t-5.454 1.375m1.031-.781a5.2 5.2 0 0 0 3.141-1.016q1.39-1.016 2.172-2.969t.782-4.672q0-2.876-.875-5.141-.876-2.267-2.532-3.548t-3.875-1.281q-2.844 0-4.376 2.141-1.531 2.14-1.531 5.985 0 3.031.922 5.422.921 2.391 2.531 3.735t3.641 1.344m32.879.031q.156 0 .156.188 0 .187-.156.187-.625 0-1.938-.062a49 49 0 0 0-1.969-.063q-.781 0-1.906.063-1.063.062-1.688.062-.125 0-.125-.187 0-.188.125-.188.813 0 1.172-.172.36-.171.36-.609 0-.531-.626-1.782l-2.125-4.219h-7.688l-1.219 2.719q-.406.906-.406 1.688 0 1.125.797 1.75t2.141.625q.156 0 .156.188 0 .187-.156.187-.563 0-1.626-.062a40 40 0 0 0-2.062-.063q-.844 0-2.032.063-1.062.062-1.719.062-.125 0-.125-.187 0-.188.125-.188.875 0 1.469-.359.594-.36 1.188-1.282t1.406-2.734l6.782-14.908q.063-.094.281-.094.25 0 .282.094l7.813 15.377q1.094 2.219 1.813 3.062.719.844 1.5.844m-16.002-7.657h6.813l-3.594-7.126zm20.096-10.782q-3.719 0-5.344 4.844-.031.093-.188.078-.156-.016-.156-.109.125-1.25.281-3.235t.157-2.985q0-.156.172-.156t.171.156q0 .688 1.782.688 2.688.094 6.282.094 1.843 0 3.907-.063l2.125-.031q1.188 0 1.734-.157.547-.156.704-.625.03-.125.203-.125.171 0 .172.125a71 71 0 0 0-.204 3.001 67 67 0 0 0-.109 3.313q0 .093-.156.093t-.188-.093q-.469-2.407-1.75-3.61-1.28-1.203-3.157-1.203-.906 0-1.203.39-.297.392-.297 1.485v14.408q0 .968.188 1.406.187.438.719.594.53.156 1.687.156.094 0 .094.188 0 .187-.094.187-1.125 0-1.781-.031l-2.594-.031-2.532.031q-.656.031-1.812.031-.094 0-.094-.187 0-.188.094-.188 1.125 0 1.672-.156t.75-.609.203-1.391V25.826q0-1.062-.281-1.437t-1.157-.375" style="fill:#023f86;fill-rule:nonzero"/><path d="M113.286 60.282q0 .553-.1 1.18a7 7 0 0 1-.323 1.247 6 6 0 0 1-.587 1.183 4.3 4.3 0 0 1-.886.995 4.1 4.1 0 0 1-1.224.687q-.702.258-1.601.258-.76 0-1.34-.17a2.5 2.5 0 0 1-.979-.521 2.2 2.2 0 0 1-.603-.885q-.204-.533-.204-1.256 0-.59.104-1.233t.332-1.262q.23-.619.6-1.177.37-.559.891-.986a4.1 4.1 0 0 1 1.218-.675 4.7 4.7 0 0 1 1.582-.248q.76 0 1.341.173.58.173.976.527.395.355.599.895t.204 1.268m-1.745.157q0-.382-.085-.694a1.3 1.3 0 0 0-.273-.524 1.2 1.2 0 0 0-.493-.329 2.1 2.1 0 0 0-.743-.117q-.547 0-.961.211-.414.21-.722.549a3.2 3.2 0 0 0-.515.775 5.9 5.9 0 0 0-.511 1.761 6 6 0 0 0-.054.747q0 .39.085.697.086.308.276.518.192.21.496.323.305.113.75.113.54 0 .955-.207a2.4 2.4 0 0 0 .718-.543q.305-.336.512-.769.207-.434.333-.879.126-.446.179-.872.053-.427.053-.76m10.241-2.09q0 .176-.059.47-.06.296-.151.474-.091.18-.204.179-.081 0-.195-.103a2.2 2.2 0 0 0-.759-.446 2.1 2.1 0 0 0-.703-.104q-.465 0-.848.186a2.5 2.5 0 0 0-.684.489 3.3 3.3 0 0 0-.527.7 5 5 0 0 0-.374.823 5.4 5.4 0 0 0-.22.85 5 5 0 0 0-.072.788q0 .44.11.772.11.333.317.553a1.3 1.3 0 0 0 .509.329q.3.11.678.11.445 0 .762-.094.318-.095.54-.207.223-.113.371-.207a.5.5 0 0 1 .266-.094q.082 0 .11.059.029.06.029.167 0 .044-.013.131t-.031.198l-.044.239a3 3 0 0 1-.057.238 2 2 0 0 1-.072.201.5.5 0 0 1-.11.16 1.3 1.3 0 0 1-.27.179 3 3 0 0 1-.49.204 5 5 0 0 1-.652.16 4.4 4.4 0 0 1-.779.066q-.684 0-1.234-.182a2.4 2.4 0 0 1-.932-.552 2.5 2.5 0 0 1-.59-.929q-.207-.56-.207-1.306 0-.584.119-1.215.12-.631.361-1.234.242-.602.612-1.142t.876-.945 1.149-.643a4 4 0 0 1 1.428-.239q.44 0 .832.091t.684.242q.293.15.408.273a.43.43 0 0 1 .116.311m7.266-.547q0 .038-.009.132a4 4 0 0 1-.079.452q-.031.126-.078.229a.6.6 0 0 1-.113.173.2.2 0 0 1-.142.069h-2.9l-.402 1.984h2.461q.088 0 .126.063a.34.34 0 0 1 .037.175q0 .045-.009.135-.01.091-.028.208-.02.115-.051.235t-.078.22a.6.6 0 0 1-.11.163.2.2 0 0 1-.138.063h-2.455l-.464 2.291h2.938q.075 0 .113.066a.4.4 0 0 1 .037.192q0 .043-.006.138a2 2 0 0 1-.028.21 4 4 0 0 1-.053.235 1.3 1.3 0 0 1-.079.223.6.6 0 0 1-.11.167.2.2 0 0 1-.144.062h-4.081a.6.6 0 0 1-.182-.028.3.3 0 0 1-.135-.094.4.4 0 0 1-.072-.163.7.7 0 0 1 .006-.236l1.419-7.081q.057-.276.226-.399a.63.63 0 0 1 .377-.122h4.043q.163 0 .163.238m-1.507-1.036a1 1 0 0 1-.135.098.6.6 0 0 1-.157.066q-.09.024-.226.041-.135.015-.329.015-.428 0-.524-.081-.097-.083.065-.252l1.187-1.28q.082-.088.163-.145a.6.6 0 0 1 .195-.087q.112-.032.27-.044.156-.013.383-.013.294 0 .452.038.157.037.213.097.057.06.022.135a.5.5 0 0 1-.129.157zm9.218 8.306q.032.226.028.358-.003.132-.087.198a.53.53 0 0 1-.28.081 7 7 0 0 1-.533.016 7 7 0 0 1-.39-.009 1 1 0 0 1-.232-.035q-.081-.025-.113-.075a.3.3 0 0 1-.038-.138l-.219-1.633h-3.051l-.842 1.595a.6.6 0 0 1-.1.148.4.4 0 0 1-.163.091q-.107.03-.286.044a7 7 0 0 1-.898-.007q-.16-.019-.213-.091-.054-.072-.013-.204.042-.132.16-.351l3.943-7.207a1 1 0 0 1 .126-.173.4.4 0 0 1 .178-.101 1.4 1.4 0 0 1 .314-.043q.198-.01.518-.01.37 0 .587.01.218.009.336.043.12.035.157.104a.5.5 0 0 1 .05.188zm-2.467-5.958h-.006l-1.815 3.453h2.286zm11.422 5.996a.74.74 0 0 1-.267.446.7.7 0 0 1-.214.109.8.8 0 0 1-.241.035h-.704q-.226 0-.37-.044a.55.55 0 0 1-.248-.157 1 1 0 0 1-.185-.308 5 5 0 0 1-.17-.496l-1.199-3.628a17 17 0 0 1-.254-.848 54 54 0 0 1-.223-.847h-.012q-.063.495-.145.976-.081.48-.182.964l-.829 4.149a.23.23 0 0 1-.059.113.34.34 0 0 1-.141.082 1.3 1.3 0 0 1-.242.05 3 3 0 0 1-.367.019q-.22 0-.361-.019a1 1 0 0 1-.217-.05q-.076-.031-.097-.082a.16.16 0 0 1-.003-.113l1.462-7.307a.7.7 0 0 1 .258-.443.75.75 0 0 1 .452-.147h.86q.207 0 .355.047a.6.6 0 0 1 .251.151 1 1 0 0 1 .182.266q.078.163.147.402l1.212 3.66q.12.352.216.697.097.345.205.691h.012q.069-.453.154-.933t.173-.932l.772-3.829a.2.2 0 0 1 .056-.11.3.3 0 0 1 .135-.076q.091-.028.236-.044.144-.015.364-.015t.364.015a1 1 0 0 1 .22.044q.075.028.1.076a.16.16 0 0 1 .013.11zm8.585.358a.22.22 0 0 1-.062.113.4.4 0 0 1-.154.081 1.4 1.4 0 0 1-.267.047 4 4 0 0 1-.402.016q-.245 0-.398-.016a1 1 0 0 1-.242-.047q-.088-.031-.119-.081a.13.13 0 0 1-.013-.113l1.538-7.684a.17.17 0 0 1 .06-.113.4.4 0 0 1 .157-.082q.104-.032.263-.047a4 4 0 0 1 .399-.016q.239 0 .392.016.155.015.245.047.092.031.12.082a.16.16 0 0 1 .015.113zm9.658-.358a.7.7 0 0 1-.097.257.8.8 0 0 1-.17.189.7.7 0 0 1-.213.109 1 1 0 0 1-.242.035h-.703q-.226 0-.371-.044a.55.55 0 0 1-.248-.157 1.1 1.1 0 0 1-.185-.308 5 5 0 0 1-.169-.496l-1.199-3.628a18 18 0 0 1-.255-.848 53 53 0 0 1-.222-.847h-.013a24 24 0 0 1-.326 1.94l-.829 4.149a.23.23 0 0 1-.06.113.3.3 0 0 1-.141.082 1.3 1.3 0 0 1-.242.05 3 3 0 0 1-.367.019q-.22 0-.361-.019a1 1 0 0 1-.217-.05q-.075-.031-.097-.082a.16.16 0 0 1-.003-.113l1.463-7.307a.68.68 0 0 1 .257-.443.75.75 0 0 1 .452-.147h.86q.208 0 .355.047a.6.6 0 0 1 .251.151q.104.104.182.266t.148.402l1.211 3.66q.12.352.217.697t.204.691h.012a43 43 0 0 1 .327-1.865l.772-3.829a.2.2 0 0 1 .057-.11.3.3 0 0 1 .135-.076q.09-.028.235-.044.144-.015.364-.015t.364.015.22.044.1.076a.16.16 0 0 1 .013.11zm10.492-4.608q0 .377-.047.797a6 6 0 0 1-.157.857q-.11.437-.295.866a4.6 4.6 0 0 1-.461.823 4.3 4.3 0 0 1-.656.731 4 4 0 0 1-.876.587 4.8 4.8 0 0 1-1.118.386 7 7 0 0 1-1.481.138h-2.066a.7.7 0 0 1-.191-.025.33.33 0 0 1-.151-.084.3.3 0 0 1-.081-.161.6.6 0 0 1 .009-.251l1.419-7.081q.05-.276.22-.399a.67.67 0 0 1 .401-.122h1.959q.967 0 1.617.188.65.189 1.086.559t.653.92.216 1.271m-1.732.194q0-.395-.107-.734a1.44 1.44 0 0 0-.345-.584 1.6 1.6 0 0 0-.613-.383q-.373-.138-1.001-.138h-.86l-1.111 5.525h.866q.66 0 1.108-.16.45-.16.791-.44.342-.28.584-.647t.396-.775q.153-.408.223-.835.069-.426.069-.829m5.024 4.772a.2.2 0 0 1-.063.113.4.4 0 0 1-.154.081 1.4 1.4 0 0 1-.266.047 4 4 0 0 1-.402.016q-.244 0-.399-.016a1 1 0 0 1-.242-.047q-.087-.031-.119-.081a.13.13 0 0 1-.012-.113l1.538-7.684a.18.18 0 0 1 .059-.113.4.4 0 0 1 .157-.082 1.4 1.4 0 0 1 .264-.047q.16-.016.399-.016.238 0 .392.016.153.015.245.047.09.031.119.082a.16.16 0 0 1 .016.113zm9.212-7.666q0 .038-.01.132a3 3 0 0 1-.078.452 1.3 1.3 0 0 1-.079.229.6.6 0 0 1-.113.173q-.066.069-.141.069h-2.9l-.402 1.984h2.461q.087 0 .125.063a.34.34 0 0 1 .038.175q0 .045-.009.135-.01.091-.029.208a2 2 0 0 1-.05.235 1.3 1.3 0 0 1-.078.22.6.6 0 0 1-.11.163.2.2 0 0 1-.138.063h-2.455l-.465 2.291h2.938q.076 0 .113.066a.4.4 0 0 1 .038.192q0 .043-.006.138a2 2 0 0 1-.028.21 4 4 0 0 1-.054.235q-.031.12-.078.223a.6.6 0 0 1-.11.167.2.2 0 0 1-.144.062h-4.081a.6.6 0 0 1-.182-.028.3.3 0 0 1-.135-.094.35.35 0 0 1-.072-.163.6.6 0 0 1 .006-.236l1.419-7.081q.056-.276.226-.399a.63.63 0 0 1 .376-.122h4.043q.164 0 .164.238m7.874 7.308a.7.7 0 0 1-.097.257.7.7 0 0 1-.17.189.7.7 0 0 1-.213.109 1 1 0 0 1-.242.035h-.703q-.226 0-.37-.044a.54.54 0 0 1-.248-.157 1.1 1.1 0 0 1-.186-.308 5 5 0 0 1-.169-.496l-1.199-3.628a17 17 0 0 1-.254-.848 45 45 0 0 1-.223-.847h-.013a24 24 0 0 1-.326 1.94l-.829 4.149a.22.22 0 0 1-.06.113.3.3 0 0 1-.141.082 1.3 1.3 0 0 1-.242.05q-.147.02-.367.019-.22 0-.361-.019a1 1 0 0 1-.216-.05q-.076-.031-.098-.082a.17.17 0 0 1-.003-.113l1.463-7.307a.68.68 0 0 1 .257-.443.75.75 0 0 1 .452-.147h.86q.208 0 .355.047a.6.6 0 0 1 .251.151q.104.104.182.266.08.163.148.402l1.211 3.66q.12.352.217.697.098.345.204.691h.013a43 43 0 0 1 .326-1.865l.772-3.829a.2.2 0 0 1 .057-.11.3.3 0 0 1 .135-.076q.09-.028.235-.044.144-.015.364-.015t.364.015q.145.016.22.044t.101.076a.16.16 0 0 1 .012.11z" style="fill:#fdbb27;fill-rule:nonzero"/><path d="M218.314 50.425H83.473c-1.097-.038-1.246-.309-1.443-.563-.461-.595.294-1.386 1.443-1.426h134.841l.18.007c1.232.13 1.792 1.17.953 1.691-.279.173-.47.268-1.133.291" style="fill:#febc27"/><path d="M2.589 50.512s33.56-6.875 64.289-.61c0 0-7.073 6.913-30.807 5.789l-6.06-2.133s25.028.591 30.164-3.046c0 0-23.493-3.904-57.586 0m30.469-5.18S47.879 29.85 42.808.543c0 0 7.28 28.926-9.75 44.789" style="fill:#fdbb27"/><path d="M-.153 58.738s9.337-9.617 21.328-6.398c11.991 3.218 37.064 15.386 45.703 3.475 0 0-7.478 17.855-36.258 4.447-16.603-7.736-23.619-4.489-30.773-1.524M44.94 6.941s7.671 21.309-9.173 38.391c0 0 26.857.389 27.759-13.406.642-9.807-18.586-24.985-18.586-24.985" style="fill:#0a4e93"/></svg>