<svg viewBox="0 0 220 66" xmlns="http://www.w3.org/2000/svg">
  <!-- MYBOAT Text -->
  <g fill="#023f86">
    <path d="M110.1 42.5c0-.1.1-.2.1-.2s0-.2-.1-.2c-.7 0-1.3 0-1.7 0l-2.3 0-2.3 0c-.4 0-1 0-1.6 0 0 0-.1.1-.1.2s0 .2.1.2c.9 0 1.5-.1 1.8-.3.3-.2.5-.6.5-1.3l0-.5-.7-12.8-6.4 15.1c0 .1-.1.1-.3.1-.1 0-.2 0-.2-.1l-7.9-15 0 11.3c0 1.1.2 2 .7 2.6.5.6 1.1 1 2 1 0 0 .1.1.1.2s0 .2-.1.2c-.6 0-1 0-1.3 0l-1.7 0-2 0c-.3 0-.8 0-1.3 0 0 0-.1-.1-.1-.2s0-.2.1-.2c.9 0 1.5-.3 2-1 .5-.6.8-1.5.8-2.6l.3-12.9 0 0c-.4-.8-.8-1.3-1.3-1.7-.4-.4-1-.5-1.5-.5 0 0-.1-.1-.1-.2s0-.2.1-.2l1.5 0c.3 0 .7 0 1.1 0l1.7 0c.2 0 .4 0 .7 0 .3 0 .5.1.6.3.1.2.4.6.8 1.3l6.8 12.8 5.9-13.6c.1-.3.3-.5.4-.6.1-.1.3-.2.5-.2.2 0 .4 0 .6 0 .2 0 .5 0 .8 0l1.8 0c.3 0 .7 0 1.3 0 0 0 .1.1.1.2s0 .2-.1.2c-1 0-1.7.2-2.1.6-.4.4-.6 1-.6 1.8l.8 14.2c0 .6.1 1.1.2 1.4.1.3.3.5.6.6.3.1.8.2 1.4.2z"/>
    <path d="M129.8 23.3c0 0 .1.1.1.2s0 .2-.1.2c-.6 0-1.4.4-2.4 1.2-.9.8-1.8 1.8-2.5 3l-3.3 5.4v7c0 .6.1 1.1.2 1.4.1.3.3.5.6.6.3.1.8.2 1.5.2 0 0 .1.1.1.2s0 .2-.1.2c-.7 0-1.2 0-1.6 0l-2.3 0-2.3 0c-.4 0-1 0-1.7 0 0 0-.1-.1-.1-.2s0-.2.1-.2c.7 0 1.2-.1 1.5-.2.3-.1.5-.3.6-.6.1-.3.2-.8.2-1.4v-6.3l-4.6-7.1c-.8-1.2-1.4-2-1.9-2.5-.5-.5-.9-.7-1.3-.7 0 0-.1-.1-.1-.2s0-.2.1-.2l1 0c.5 0 .8.1 1 .1.7 0 1.8 0 3.2-.1l2.1 0c0 0 .1.1.1.2s0 .2-.1.2c-.4 0-.6.1-.8.3-.2.2-.3.4-.3.7 0 .3.1.7.4 1.2l4.3 6.8 2.9-4.9c.6-.9.8-1.7.8-2.4 0-.5-.2-.9-.5-1.1-.3-.3-.7-.4-1.3-.4 0 0-.1-.1-.1-.2s0-.2.1-.2l1.7 0c1 0 1.8.1 2.6.1.4 0 .8 0 1.3-.1l1.2 0z"/>
    <path d="M146.9 31.9c1.8.2 3.1.8 4.2 1.8 1 1 1.5 2.1 1.5 3.6 0 1.1-.3 2.1-.9 2.9-.6.9-1.5 1.6-2.6 2.1-1.1.5-2.3.8-3.7.8-.6 0-1.3 0-2-.1-.3 0-.7 0-1.1-.1-.4 0-.9 0-1.4 0l-2.3 0c-.4 0-1 0-1.7 0 0 0-.1-.1-.1-.2s0-.2.1-.2c.6 0 1.1-.1 1.4-.2.3-.1.5-.3.7-.6.1-.3.2-.8.2-1.4V23.7c0-.9-.1-1.5-.4-1.7-.3-.3-.9-.4-1.8-.4 0 0-.1-.1-.1-.2s0-.2.1-.2l1.7 0c1 0 1.7.1 2.3.1.6 0 1.2 0 1.8-.1.2 0 .5 0 .9-.1.4 0 .8 0 1.1 0 1.9 0 3.4.3 4.4 1 1 .7 1.6 1.7 1.6 3 0 1-.3 1.9-1 2.7-.7.8-1.6 1.4-2.8 1.9zm-2.6-8c-.6 0-1 .1-1.3.4-.2.3-.3.8-.3 1.6v5.9l1.3 0c1.1 0 1.9-.4 2.5-1.2.6-.8.9-1.9.9-3.1 0-1.2-.3-2.1-.8-2.7-.5-.6-1.3-.9-2.3-.9zm.6 18.3c2.7 0 4.1-1.4 4.1-4.3 0-1.6-.4-2.9-1.2-3.8-.8-.9-1.9-1.4-3.5-1.4-.6 0-1.1 0-1.6.1v7.5c0 .7.1 1.2.4 1.5.3.3.9.4 1.8.4z"/>
    <path d="M165.1 43.2c-1.9 0-3.7-.5-5.2-1.4-1.5-.9-2.7-2.1-3.5-3.7-.8-1.6-1.2-3.2-1.2-5.1 0-2.1.5-4 1.6-5.5 1.1-1.5 2.5-2.7 4.2-3.5 1.7-.8 3.4-1.2 5.2-1.2 2 0 3.7.5 5.2 1.4 1.5.9 2.7 2.2 3.5 3.7.8 1.5 1.2 3.1 1.2 4.8 0 1.9-.5 3.6-1.5 5.2-1 1.6-2.3 2.8-4 3.8-1.7.9-3.5 1.4-5.5 1.4zm1-.8c1.2 0 2.2-.3 3.1-1 .9-.7 1.7-1.7 2.2-3 .5-1.3.8-2.9.8-4.7 0-1.9-.3-3.6-.9-5.1-.6-1.5-1.4-2.7-2.5-3.5-1.1-.9-2.4-1.3-3.9-1.3-1.9 0-3.4.7-4.4 2.1-1 1.4-1.5 3.4-1.5 6 0 2 .3 3.8.9 5.4.6 1.6 1.5 2.8 2.5 3.7 1.1.9 2.3 1.3 3.6 1.3z"/>
    <path d="M199 42.5c.1 0 .2.1.2.2s-.1.2-.2.2c-.4 0-1.1 0-1.9-.1-.9 0-1.6-.1-2-.1-.5 0-1.2 0-1.9.1-.7 0-1.3.1-1.7.1-.1 0-.1-.1-.1-.2s0-.2.1-.2c.5 0 .9-.1 1.2-.2.2-.1.4-.3.4-.6 0-.4-.2-.9-.6-1.8l-2.1-4.2h-7.7l-1.2 2.7c-.3.6-.4 1.2-.4 1.7 0 .8.3 1.3.8 1.8.5.4 1.2.6 2.1.6.1 0 .2.1.2.2s-.1.2-.2.2c-.4 0-.9 0-1.6-.1-.8 0-1.5-.1-2.1-.1-.6 0-1.2 0-2 .1-.7 0-1.3.1-1.7.1-.1 0-.1-.1-.1-.2s0-.2.1-.2c.6 0 1.1-.1 1.5-.4.4-.2.8-.7 1.2-1.3.4-.6.9-1.5 1.4-2.7l6.8-14.9c0-.1.1-.1.3-.1.2 0 .3 0 .3.1l7.8 15.4c.7 1.5 1.3 2.5 1.8 3.1.5.6 1 .8 1.5.8zm-16-7.7h6.8l-3.6-7.1-3.2 7.1z"/>
    <path d="M203.1 24c-2.5 0-4.3 1.6-5.3 4.8 0 .1-.1.1-.2.1-.1 0-.2 0-.2-.1.1-.8.2-1.9.3-3.2.1-1.3.2-2.3.2-3 0-.1.1-.2.2-.2s.2.1.2.2c0 .5.6.7 1.8.7 1.8.1 3.9.1 6.3.1 1.2 0 2.5 0 3.9-.1l2.1 0c.8 0 1.4-.1 1.7-.2.4-.1.6-.3.7-.6 0-.1.1-.1.2-.1s.2 0 .2.1c-.1.6-.1 1.6-.2 3-.1 1.4-.1 2.5-.1 3.3 0 .1-.1.1-.2.1s-.2 0-.2-.1c-.3-1.6-.9-2.8-1.8-3.6-.9-.8-1.9-1.2-3.2-1.2-.6 0-1 .1-1.2.4-.2.3-.3.8-.3 1.5v14.4c0 .6.1 1.1.2 1.4.1.3.4.5.7.6.4.1.9.2 1.7.2 0 0 .1.1.1.2s0 .2-.1.2c-.8 0-1.3 0-1.8 0l-2.6 0-2.5 0c-.4 0-1 0-1.8 0 0 0-.1-.1-.1-.2s0-.2.1-.2c.8 0 1.3-.1 1.7-.2.4-.1.6-.3.8-.6.1-.3.2-.8.2-1.4V24.4c0-.7-.1-1.2-.3-1.4-.2-.3-.6-.4-1.2-.4z"/>
  </g>
  <!-- OCEAN INDIEN Text -->
  <g fill="#fdbb27">
    <path d="M113.3 60.3c0 .4 0 .8-.1 1.2-.1.4-.2.8-.3 1.2-.1.4-.3.8-.6 1.2-.2.4-.5.7-.9 1-.3.3-.8.5-1.2.7-.5.2-1 .3-1.6.3-.5 0-1-.1-1.3-.2-.4-.1-.7-.3-1-.5-.3-.2-.5-.5-.6-.9-.1-.4-.2-.8-.2-1.3 0-.4 0-.8.1-1.2.1-.4.2-.9.3-1.3.2-.4.4-.8.6-1.2.2-.4.5-.7.9-1 .3-.3.8-.5 1.2-.7.5-.2 1-.2 1.6-.2.5 0 1 .1 1.3.2.4.1.7.3 1 .5.3.2.5.5.6.9.1.4.2.8.2 1.3zm-1.7.2c0-.3 0-.5-.1-.7-.1-.2-.1-.4-.3-.5-.1-.1-.3-.3-.5-.3-.2-.1-.5-.1-.7-.1-.4 0-.7.1-1 .2-.3.1-.5.3-.7.5-.2.2-.4.5-.5.8-.1.3-.2.6-.3.9-.1.3-.1.6-.2.9 0 .3-.1.5-.1.7 0 .3 0 .5.1.7.1.2.1.4.3.5.1.1.3.2.5.3.2.1.5.1.8.1.4 0 .7-.1 1-.2.3-.1.5-.3.7-.5.2-.2.4-.5.5-.8.1-.3.2-.6.3-.9.1-.3.1-.6.2-.9 0-.3.1-.5.1-.8z"/>
    <path d="M121.8 58.3c0 .1 0 .3-.1.5 0 .2-.1.4-.2.5-.1.1-.1.2-.2.2-.1 0-.1 0-.2-.1-.1-.1-.2-.1-.3-.2-.1-.1-.3-.2-.5-.2-.2-.1-.4-.1-.7-.1-.3 0-.6.1-.8.2-.3.1-.5.3-.7.5-.2.2-.4.4-.5.7-.2.3-.3.5-.4.8-.1.3-.2.6-.2.9 0 .3-.1.5-.1.8 0 .3 0 .6.1.8.1.2.2.4.3.6.1.1.3.3.5.3.2.1.4.1.7.1.3 0 .6 0 .8-.1.2-.1.4-.1.5-.2.1-.1.3-.1.4-.2.1-.1.2-.1.3-.1 0 0 .1 0 .1.1 0 0 0 .1 0 .2v.1c0 .1 0 .1 0 .2 0 .1 0 .2 0 .2 0 .1 0 .2-.1.2 0 .1 0 .1-.1.2 0 .1-.1.1-.1.2 0 0-.1.1-.3.2-.1.1-.3.1-.5.2-.2.1-.4.1-.7.2-.2 0-.5.1-.8.1-.5 0-.9-.1-1.2-.2-.4-.1-.7-.3-.9-.6-.3-.2-.5-.6-.6-.9-.1-.4-.2-.8-.2-1.3 0-.4 0-.8.1-1.2.1-.4.2-.8.4-1.2.2-.4.4-.8.6-1.1.2-.4.5-.7.9-.9.3-.3.7-.5 1.1-.6.4-.2.9-.2 1.4-.2.3 0 .6 0 .8.1.3.1.5.1.7.2.2.1.3.2.4.3.1.1.1.2.1.3z"/>
    <path d="M129 57.8v.1c0 .1 0 .1 0 .2 0 .1 0 .2-.1.2 0 .1 0 .2-.1.2 0 .1-.1.1-.1.2l-.1.1h-2.9l-.4 2h2.5c.1 0 .1 0 .1.1 0 0 0 .1 0 .2v.1c0 .1 0 .1 0 .2 0 .1 0 .2-.1.2 0 .1 0 .2-.1.2 0 .1-.1.1-.1.2l-.1.1h-2.5l-.5 2.3h2.9c.1 0 .1 0 .1.1 0 0 0 .1 0 .2v.1c0 .1 0 .1 0 .2 0 .1 0 .2-.1.2 0 .1 0 .2-.1.2 0 .1-.1.1-.1.2l-.1.1h-4.1c-.1 0-.1 0-.2 0l-.1-.1c0 0-.1-.1-.1-.2 0-.1 0-.1 0-.2l1.4-7.1c0-.2.1-.3.2-.4.1-.1.2-.1.4-.1h4c.1 0 .2.1.2.2zm-1.5-1l-.1.1c0 0-.1 0-.2.1h-.2c-.1 0-.2 0-.3 0-.3 0-.5 0-.5-.1-.1-.1 0-.1.1-.3l1.2-1.3c.1-.1.1-.1.2-.1.1 0 .1-.1.2-.1h.3c.1 0 .2 0 .4 0 .2 0 .3 0 .5 0 .1 0 .2.1.2.1 0 0 0 .1 0 .1l-.1.2-1.4 1.3z"/>
    <path d="M136.8 65.1c0 .2 0 .3 0 .4 0 .1 0 .2-.1.2-.1 0-.2.1-.3.1h-.5c-.2 0-.3 0-.4 0h-.2c-.1 0-.1 0-.1-.1l0-.1-.2-1.6h-3.1l-.8 1.6c0 .1-.1.1-.1.1 0 0-.1.1-.2.1h-.3c-.1 0-.3 0-.4 0-.2 0-.3 0-.4 0-.1 0-.2 0-.2-.1 0 0 0-.1 0-.2 0-.1.1-.2.2-.4l3.9-7.2c0-.1.1-.1.1-.2l.2-.1h.3c.1 0 .3 0 .5 0 .2 0 .4 0 .6 0h.3c.1 0 .1.1.2.1 0 0 0 .1 0 .2l1.1 7.2zm-2.5-6h0l-1.8 3.5h2.3l-.5-3.5z"/>
    <path d="M145.7 65.1c0 .1 0 .2-.1.3 0 .1-.1.1-.2.2-.1 0-.1.1-.2.1h-.2-.7c-.2 0-.3 0-.4 0-.1 0-.2-.1-.2-.2-.1-.1-.1-.2-.2-.3l-.2-.5-1.2-3.6c-.1-.3-.2-.6-.3-.8-.1-.3-.2-.6-.2-.8h0c0 .3-.1.7-.1 1 0 .3-.1.6-.2 1l-.8 4.1c0 0 0 .1-.1.1l-.1.1h-.2c-.1 0-.2 0-.4 0-.1 0-.3 0-.4 0h-.2c-.1 0-.1-.1-.1-.1 0 0 0-.1 0-.1l1.5-7.3c0-.2.1-.3.3-.4.1-.1.3-.1.5-.1h.9c.1 0 .3 0 .4 0 .1 0 .2.1.3.2.1.1.1.2.2.3l.1.4 1.2 3.7c.1.2.2.5.2.7.1.2.1.5.2.7h0c0-.3.1-.6.2-.9.1-.3.1-.6.2-.9l.8-3.8c0 0 0-.1.1-.1l.1-.1h.2c.1 0 .2 0 .4 0 .1 0 .3 0 .4 0h.2c.1 0 .1 0 .1.1 0 0 0 .1 0 .1l-1.5 7.3z"/>
    <path d="M154.3 65.5c0 0 0 .1-.1.1l-.2.1h-.3c-.1 0-.2 0-.4 0-.2 0-.3 0-.4 0h-.2c-.1 0-.1-.1-.1-.1 0 0 0-.1 0-.1l1.5-7.7c0 0 0-.1.1-.1l.2-.1h.3c.1 0 .2 0 .4 0 .2 0 .3 0 .4 0h.2c.1 0 .1 0 .1.1 0 0 0 .1 0 .1l-1.5 7.7z"/>
    <path d="M164 65.1c0 .1 0 .2-.1.3 0 .1-.1.1-.2.2-.1 0-.1.1-.2.1h-.2-.7c-.2 0-.3 0-.4 0-.1 0-.2-.1-.2-.2-.1-.1-.1-.2-.2-.3l-.2-.5-1.2-3.6c-.1-.3-.2-.6-.3-.8-.1-.3-.2-.6-.2-.8h0c0 .3-.1.7-.1 1-.1.3-.1.6-.2 1l-.8 4.1c0 0 0 .1-.1.1l-.1.1h-.2c-.1 0-.2 0-.4 0-.1 0-.3 0-.4 0h-.2c-.1 0-.1-.1-.1-.1 0 0 0-.1 0-.1l1.5-7.3c0-.2.1-.3.3-.4.1-.1.3-.1.5-.1h.9c.1 0 .3 0 .4 0 .1 0 .2.1.3.2.1.1.1.2.2.3l.1.4 1.2 3.7c.1.2.2.5.2.7.1.2.1.5.2.7h0c0-.3.1-.6.2-.9.1-.3.1-.6.2-.9l.8-3.8c0 0 0-.1.1-.1l.1-.1h.2c.1 0 .2 0 .4 0 .1 0 .3 0 .4 0h.2c.1 0 .1 0 .1.1 0 0 0 .1 0 .1l-1.5 7.3z"/>
    <path d="M174.4 60.5c0 .3 0 .5 0 .8 0 .3-.1.6-.2.9-.1.3-.2.6-.3.9-.1.3-.3.6-.5.8-.2.3-.4.5-.7.7-.3.2-.5.4-.9.6-.3.2-.7.3-1.1.4-.4.1-.9.1-1.5.1h-2.1c-.1 0-.1 0-.2 0l-.2-.1c0 0-.1-.1-.1-.2 0-.1 0-.2 0-.3l1.4-7.1c0-.2.1-.3.2-.4.1-.1.2-.1.4-.1h2c.6 0 1.2.1 1.6.2.4.1.8.3 1.1.6.3.2.5.6.7.9.1.4.2.8.2 1.3zm-1.7.2c0-.3 0-.5-.1-.7-.1-.2-.2-.4-.3-.6-.2-.2-.4-.3-.6-.4-.2-.1-.6-.1-1-.1h-.9l-1.1 5.5h.9c.4 0 .8-.1 1.1-.2.3-.1.6-.3.8-.4.2-.2.4-.4.6-.6.2-.2.3-.5.4-.8.1-.3.2-.6.2-.8 0-.3.1-.6.1-.8z"/>
    <path d="M177.7 65.5c0 0 0 .1-.1.1l-.2.1h-.3c-.1 0-.2 0-.4 0-.2 0-.3 0-.4 0h-.2c-.1 0-.1-.1-.1-.1 0 0 0-.1 0-.1l1.5-7.7c0 0 0-.1.1-.1l.2-.1h.3c.1 0 .2 0 .4 0 .2 0 .3 0 .4 0h.2c.1 0 .1 0 .1.1 0 0 0 .1 0 .1l-1.5 7.7z"/>
    <path d="M187 57.8v.1c0 .1 0 .1 0 .2 0 .1 0 .2-.1.2 0 .1 0 .2-.1.2 0 .1-.1.1-.1.2l-.1.1h-2.9l-.4 2h2.5c.1 0 .1 0 .1.1 0 0 0 .1 0 .2v.1c0 .1 0 .1 0 .2 0 .1 0 .2-.1.2 0 .1 0 .2-.1.2 0 .1-.1.1-.1.2l-.1.1h-2.5l-.5 2.3h2.9c.1 0 .1 0 .1.1 0 0 0 .1 0 .2v.1c0 .1 0 .1 0 .2 0 .1 0 .2-.1.2 0 .1 0 .2-.1.2 0 .1-.1.1-.1.2l-.1.1h-4.1c-.1 0-.1 0-.2 0l-.1-.1c0 0-.1-.1-.1-.2 0-.1 0-.1 0-.2l1.4-7.1c0-.2.1-.3.2-.4.1-.1.2-.1.4-.1h4c.1 0 .2.1.2.2z"/>
    <path d="M194.8 65.1c0 .1 0 .2-.1.3 0 .1-.1.1-.2.2-.1 0-.1.1-.2.1h-.2-.7c-.2 0-.3 0-.4 0-.1 0-.2-.1-.2-.2-.1-.1-.1-.2-.2-.3-.1-.1-.1-.3-.2-.5l-1.2-3.6c-.1-.3-.2-.6-.3-.8-.1-.3-.2-.6-.2-.8h0c0 .3-.1.7-.1 1-.1.3-.1.6-.2 1l-.8 4.1c0 0 0 .1-.1.1l-.1.1h-.2c-.1 0-.2 0-.4 0-.1 0-.3 0-.4 0h-.2c-.1 0-.1-.1-.1-.1 0 0 0-.1 0-.1l1.5-7.3c0-.2.1-.3.3-.4.1-.1.3-.1.5-.1h.9c.1 0 .3 0 .4 0 .1 0 .2.1.3.2.1.1.1.2.2.3l.1.4 1.2 3.7c.1.2.2.5.2.7.1.2.1.5.2.7h0c0-.3.1-.6.2-.9.1-.3.1-.6.2-.9l.8-3.8c0 0 0-.1.1-.1l.1-.1h.2c.1 0 .2 0 .4 0 .1 0 .3 0 .4 0h.2c.1 0 .1 0 .1.1 0 0 0 .1 0 .1l-1.5 7.3z"/>
  </g>
  <!-- Yellow line -->
  <path d="M218.3 50.4H83.5c-1.1 0-1.2-.3-1.4-.6-.5-.6.3-1.4 1.4-1.4h134.8c.1 0 .1 0 .2 0 1.2.1 1.8 1.2 1 1.7-.3.2-.5.3-1.1.3z" fill="#febc27"/>
  <!-- Boat icon -->
  <g>
    <path d="M2.6 50.5s33.6-6.9 64.3-.6c0 0-7.1 6.9-30.8 5.8l-6.1-2.1s25 .6 30.2-3c0 0-23.5-3.9-57.6 0zm30.5-5.2s14.8-15.5 9.8-44.8c0 0 7.3 28.9-9.8 44.8z" fill="#fdbb27"/>
    <path d="M-.2 58.7s9.3-9.6 21.3-6.4c12 3.2 37.1 15.4 45.7 3.5 0 0-7.5 17.9-36.3 4.4-16.6-7.7-23.6-4.5-30.8-1.5zm45.1-51.8s7.7 21.3-9.2 38.4c0 0 26.9.4 27.8-13.4.6-9.8-18.6-25-18.6-25z" fill="#0a4e93"/>
  </g>
</svg>